# xmcd
#
# Track frame offsets: 
#        150
#        21792
#        41857
#        55520
#        78417
#        96852
#        138367
#        159732
#        172382
#        188860
#
# Disc length: 2790 seconds
#
# Revision: 4
# Processed by: cddbd v1.5.2PL0 Copyright (c) Steve Scherf et al.
# Submitted via: ExactAudioCopy v0.95b4
#
DISCID=850ae40a
DTITLE=Mississippi Fred McDowell - I Do Not Play No Rock 'n' Roll [dis
DTITLE=c 1]
DYEAR=1995
DGENRE=Delta Blues
TTITLE0=Baby Please Don't Go
TTITLE1=Good Morning Little School Girl
TTITLE2=Kokomo Me Baby
TTITLE3=That's All Right Baby
TTITLE4=Red Cross Store
TTITLE5=Everybody's Down on Me
TTITLE6=61 Highway
TTITLE7=Glory Hallelujah
TTITLE8=Jesus Is on the Mainline
TTITLE9=Someday
EXTD=Mississippi Fred McDowell (1904/1972): vocals, guitar\nJerry Puck
EXTD=ett: bass\nDulin Lancaster: drums\nRecorded at Malaco Sound Recor
EXTD=ding Studios, Jackson US-MS, ca. 1969-11.\nProduced by Tommy Couc
EXTD=h.\nDisc 1/tracks 1-9 released as "I Do Not Play No Roll 'n' Roll
EXTD=", Capitol ST-409 (1970).\nDisc 1/track 10 and disc 2/tracks 1-7 
EXTD=released as "Mississippi Fred McDowell: 1904-1972", Just Sunshine
EXTD=JSS-4 (1972).\nDisc 2/tracks 8-10 previously unreleased.\nReissu
EXTD=e produced and compiled by Pete Welding.\nDigitally remastered by
EXTD=Bob Norberg at Capitol Recording Studios.\n2CD: Capitol 33919 (1
EXTD=995, 2006-05-02), UPC 724383391929.
EXTT0=
EXTT1=
EXTT2=
EXTT3=
EXTT4=
EXTT5=
EXTT6=
EXTT7=
EXTT8=
EXTT9=
PLAYORDER=
